<svg xmlns="http://www.w3.org/2000/svg" xml:space="preserve" width="512" height="512" viewBox="0 0 512 512"><circle cx="256" cy="256" r="240" style="fill:#fff;fill-opacity:1;stroke:none"/><path d="M307.692 119.044c-3.46.421-8.324 1.637-10.569 2.619-.795.374-1.636.655-1.917.655-.42 0-5.518 2.244-9.306 4.115-1.964.935-10.1 5.33-13 6.967-1.029.562-2.291 1.263-2.806 1.544-.514.233-2.198 1.216-3.74 2.104a230 230 0 0 1-3.742 2.104c-.514.28-1.543.889-2.338 1.403-.748.515-1.824 1.123-2.338 1.356-.515.234-1.73.982-2.713 1.637-.982.655-1.87 1.216-2.01 1.216s-1.123.608-2.198 1.31c-2.479 1.73-6.033 3.974-6.64 4.302a132 132 0 0 0-3.788 2.431c-1.824 1.263-3.508 2.245-3.695 2.245s-.234-1.497-.093-3.274c.42-5.097-.842-7.575-5.098-10.054-2.384-1.403-5.845-1.543-9.352-.42-3.694 1.169-12.252 4.91-16.788 7.295-2.292 1.215-6.08 3.18-8.418 4.395-2.291 1.17-6.22 3.18-8.65 4.49-13.469 7.108-28.199 14.169-38.814 18.565-3.227 1.356-6.454 2.712-7.249 3.04-5.611 2.43-15.15 5.938-22.68 8.323-14.59 4.63-18.237 5.238-37.41 6.266-5.893.28-7.015.608-7.015 2.011 0 1.87 1.496 2.105 15.572 2.292 11.223.187 14.216.093 17.77-.562 6.313-1.169 11.036-2.15 13.655-2.852 1.31-.374 3.6-.982 5.144-1.403 4.91-1.263 19.36-5.845 22.727-7.202.608-.233 1.964-.748 2.993-1.122 14.684-5.752 24.738-9.867 31.098-12.813 1.683-.795 5.143-2.338 7.669-3.414a433 433 0 0 0 5.377-2.338c2.806-1.496 20.296-8.885 20.95-8.885 1.17 0 .749.982-3.32 7.622-1.029 1.73-2.15 3.554-2.385 3.975-2.291 3.882-4.255 6.407-6.22 7.903-1.262.982-7.2 5.518-13.233 10.101-12.205 9.26-16.134 12.299-18.893 14.59-1.028.842-2.899 2.385-4.208 3.414-2.058 1.637-5.799 4.676-13.608 11.083-1.918 1.59-9.072 7.67-16.742 14.31-1.028.888-2.291 2.01-2.805 2.525-.562.514-2.666 2.431-4.677 4.208-5.33 4.677-12.58 11.598-20.389 19.407-10.428 10.428-13.187 13.468-21.838 23.616-.655.748-2.198 2.712-3.46 4.302-1.216 1.59-2.432 3.18-2.713 3.507-1.777 2.058-8.932 12.392-8.932 12.86 0 .14-.56 1.029-1.309 1.964-1.45 1.917-2.245 3.133-2.9 4.49-.233.514-1.168 2.197-2.057 3.74-1.496 2.572-5.565 10.662-7.061 14.03-.795 1.823-3.227 9.071-4.162 12.392-1.45 5.284-1.777 11.55-.842 15.9 1.076 5.19 2.525 7.575 6.126 10.24 1.777 1.31 4.115 2.713 5.19 3.087 3.461 1.216 10.382.701 12.86-1.03.515-.326 1.17-.607 1.544-.607 1.029 0 7.015-4.162 10.007-6.92 4.256-4.023 11.037-11.084 14.918-15.526 1.917-2.198 3.834-4.396 4.302-4.91s2.385-2.713 4.209-4.91c1.87-2.199 3.6-4.21 3.834-4.49.281-.28 1.03-1.216 1.73-2.104.702-.889 2.526-3.087 4.022-4.864 2.666-3.226 7.856-9.867 9.68-12.392.515-.748 3.133-4.209 5.846-7.716 5.752-7.529 8.136-10.709 10.708-14.356 1.076-1.497 2.198-3.087 2.572-3.507 2.245-2.76 19.594-26.656 25.58-35.213 1.543-2.198 3.04-4.302 3.367-4.723.701-.889 1.73-2.385 5.237-7.436 1.497-2.198 3.508-5.05 4.396-6.313.889-1.31 2.572-3.694 3.741-5.377 7.202-10.522 6.36-9.634 14.076-15.339 9.96-7.388 10.194-7.529 17.302-12.486 3.46-2.431 6.547-4.582 6.781-4.77.28-.233 2.666-1.87 5.378-3.694s6.968-4.723 9.493-6.406c2.525-1.73 4.723-3.133 4.863-3.133s2.105-1.263 4.443-2.806c2.291-1.543 4.255-2.806 4.349-2.806.093 0 1.122-.655 2.244-1.403 1.17-.795 2.198-1.403 2.338-1.403.187 0 1.17-.608 2.292-1.356s2.852-1.824 3.881-2.385 2.619-1.45 3.507-1.964c.889-.514 2.572-1.45 3.742-2.104a401 401 0 0 0 6.313-3.414c2.338-1.263 5.892-3.18 7.95-4.209 2.057-1.075 4.068-2.104 4.442-2.338 1.216-.748 7.108-2.9 7.295-2.665.748.701-4.209 8.51-8.932 14.029-2.993 3.507-12.953 12.766-16.133 15.01-5.144 3.601-12.392 8.371-15.666 10.288-2.058 1.216-4.068 2.385-4.442 2.62-.375.233-1.637.934-2.806 1.542-8.418 4.583-19.313 13.14-21.044 16.555-.374.701-1.262 2.104-1.917 3.04-1.777 2.524-2.572 6.64-1.824 9.82.936 3.88 5.705 11.036 8.137 12.111.561.234 1.637.842 2.385 1.356 4.162 2.713 11.925 5.004 21.043 6.267 13.562 1.87 16.087 2.244 19.407 2.946 5.518 1.122 8.324 2.15 12.626 4.63 1.403.794 4.583 4.863 5.752 7.435 2.011 4.255 2.9 9.68 2.245 13.561-1.403 7.856-2.011 9.82-3.227 10.288-.748.28-8.137 1.777-12.72 2.525-4.115.702-8.23 1.543-10.521 2.151-1.263.374-4.022.982-6.08 1.403-3.647.702-7.014 1.543-11.69 2.806-1.263.327-3.695.982-5.378 1.403-9.353 2.478-28.62 8.838-33.903 11.176-.749.374-3.274 1.45-5.612 2.385-4.676 1.917-14.31 6.687-17.115 8.464-.982.608-1.918 1.123-2.011 1.123-.14 0-1.263.654-2.479 1.496-9.773 6.5-19.687 16.18-24.363 23.85-1.824 2.945-4.77 9.258-4.77 10.147 0 .468-.327 1.683-.748 2.666-.562 1.309-.749 3.366-.749 7.715 0 5.565.094 6.173 1.544 10.055.841 2.291 2.104 4.91 2.852 5.845.702.935 1.31 1.917 1.31 2.151 0 .561 7.482 7.623 8.043 7.623.234 0 1.122.514 1.917 1.122 2.712 1.964 7.763 3.975 13.187 5.237 3.835.889 17.21.982 19.875.187.888-.28 2.572-.701 3.74-.935 4.21-.748 9.307-2.432 15.199-4.863 8.698-3.601 26.14-13.796 33.436-19.5 13.982-10.896 26.42-23.242 35.072-34.746 4.77-6.313 14.03-20.622 14.03-21.651 0-1.543 3.46-2.525 11.924-3.414 2.057-.187 5.33-.608 7.248-.842 4.349-.608 15.011-1.777 38.486-4.115 8.277-.795 38.393-1.122 62.055-.654 13.28.28 13.094.327 17.817-4.536 4.49-4.583 4.817-8.09 1.496-14.404-1.403-2.618-5.611-6.313-7.201-6.313-.28 0-1.17-.28-1.964-.654-3.227-1.45-9.914-2.853-17.162-3.554a741 741 0 0 1-8.184-.936c-5.705-.748-39.796-.795-43.256-.046-1.403.28-5.19.748-8.417.982s-7.716.654-10.055.935c-6.92.842-14.683 1.87-19.687 2.572-2.619.374-5.799.701-7.014.701h-2.292l.14-8.51c.188-8.558-.046-10.289-1.823-15.573-.28-.795-.655-2.057-.889-2.806-.467-1.777-2.057-4.956-3.881-7.95-6.453-10.334-15.011-16.133-29.788-20.154-2.479-.702-3.274-.842-9.82-2.058-10.148-1.824-10.663-2.104-6.921-3.928 3.086-1.543 6.546-3.46 9.118-5.097 1.123-.702 2.105-1.263 2.198-1.263.374 0 8.979-5.892 12.205-8.37 8.418-6.407 18.425-15.853 23.756-22.494 7.202-8.931 13.281-20.388 14.357-26.888.187-1.31.607-3.32.935-4.49.467-1.777.42-3.086-.234-7.201-.701-4.443-1.076-5.472-2.946-8.605-1.17-1.964-2.76-4.255-3.554-5.097-1.31-1.403-5.799-4.302-8.932-5.705-2.759-1.263-10.335-1.964-14.777-1.403M142.197 265.18a45 45 0 0 1-2.479 3.46c-.842.983-3.18 3.976-5.19 6.641-4.77 6.173-8.745 11.27-16.929 21.371-3.554 4.443-6.827 8.605-7.248 9.212-.374.655-1.543 2.058-2.572 3.134-.982 1.075-2.245 2.525-2.76 3.18-1.262 1.683-5.47 6.5-8.931 10.24-1.59 1.684-3.6 3.929-4.442 4.958-3.554 4.208-9.026 9.586-9.4 9.212-.234-.234.655-2.385 1.917-4.817 3.134-6.032 3.32-6.36 5.425-9.54 1.029-1.543 2.058-3.18 2.338-3.6.842-1.45 4.817-7.155 5.705-8.184.468-.608 1.59-2.057 2.479-3.273.888-1.263 2.385-3.04 3.273-4.022s1.824-2.15 2.058-2.572c.233-.467.748-1.122 1.169-1.543.42-.374 2.198-2.385 4.021-4.442 5.144-5.846 12.065-12.86 19.173-19.5 3.601-3.368 7.716-7.202 9.166-8.605 1.45-1.356 2.9-2.479 3.18-2.479s.514-.233.514-.56c0-.281.14-.422.28-.235.188.14-.186 1.03-.747 1.964m143.563 49.71c0 1.543-9.4 12.673-16.648 19.78-8.604 8.371-15.245 13.609-25.907 20.343-5.611 3.554-17.49 9.446-22.633 11.176-9.353 3.227-17.957 3.975-23.382 2.104-5.611-1.917-8.23-4.956-7.529-8.791.982-5.565 8.652-14.076 18.238-20.295 7.716-5.004 22.96-11.41 36.943-15.573 1.543-.467 3.32-1.028 3.975-1.309.655-.234 2.01-.655 3.04-.842a258 258 0 0 0 8.183-2.057c3.46-.935 7.248-1.87 8.417-2.058 1.17-.234 4.116-.888 6.547-1.45 8.418-1.963 10.756-2.197 10.756-1.028" style="fill:#2c3e50;stroke:none;stroke-width:.0467631;fill-opacity:1"/></svg>
